<svg width="318" height="315" viewBox="0 0 318 315" fill="none" xmlns="http://www.w3.org/2000/svg">
<g clip-path="url(#clip0_1_53)">
<path d="M195.269 48.0976L218.481 23.9996H30V48.0976H195.269Z" fill="white"/>
<path d="M193.515 119.352L283.556 26.7106H250.74L175.151 103.789L193.515 119.352Z" fill="white"/>
<path d="M263.192 154.446C263.192 178.103 244.014 197.282 220.357 197.282C201.249 197.282 185.047 184.766 179.534 167.467L176.159 156.876L156.863 176.171L158.626 180.364C168.749 204.449 192.568 221.382 220.357 221.382C257.325 221.382 287.293 191.414 287.293 154.446C287.293 129.965 273.933 108.768 254.49 97.1186L249.929 94.3856L232.261 112.281L240.322 116.536C253.937 123.724 263.192 138.009 263.192 154.446Z" fill="white"/>
<path d="M117.797 215.697V68.6736H93.699V215.697H117.797Z" fill="white"/>
</g>
<path d="M59.8281 250.409C59.6766 248.742 59.0023 247.447 57.8053 246.523C56.6235 245.583 54.9341 245.114 52.7372 245.114C51.2826 245.114 50.0705 245.303 49.1008 245.682C48.1311 246.061 47.4038 246.583 46.919 247.25C46.4341 247.902 46.1841 248.652 46.169 249.5C46.1387 250.197 46.275 250.811 46.5781 251.341C46.8963 251.871 47.3508 252.341 47.9417 252.75C48.5478 253.144 49.275 253.492 50.1235 253.795C50.972 254.098 51.9266 254.364 52.9872 254.591L56.9872 255.5C59.2902 256 61.3205 256.667 63.0781 257.5C64.8508 258.333 66.3357 259.326 67.5326 260.477C68.7447 261.629 69.6614 262.955 70.2826 264.455C70.9038 265.955 71.222 267.636 71.2372 269.5C71.222 272.439 70.4796 274.962 69.0099 277.068C67.5402 279.174 65.4266 280.788 62.669 281.909C59.9266 283.03 56.616 283.591 52.7372 283.591C48.8432 283.591 45.4493 283.008 42.5553 281.841C39.6614 280.674 37.4114 278.902 35.8053 276.523C34.1993 274.144 33.3735 271.136 33.3281 267.5H44.1008C44.1917 269 44.5932 270.25 45.3053 271.25C46.0175 272.25 46.9947 273.008 48.2372 273.523C49.4947 274.038 50.9493 274.295 52.6008 274.295C54.116 274.295 55.4038 274.091 56.4644 273.682C57.5402 273.273 58.366 272.705 58.9417 271.977C59.5175 271.25 59.8129 270.417 59.8281 269.477C59.8129 268.598 59.5402 267.848 59.0099 267.227C58.4796 266.591 57.6614 266.045 56.5553 265.591C55.4644 265.121 54.0705 264.689 52.3735 264.295L47.5099 263.159C43.4796 262.235 40.3053 260.742 37.9872 258.682C35.669 256.606 34.5175 253.803 34.5326 250.273C34.5175 247.394 35.2902 244.871 36.8508 242.705C38.4114 240.538 40.5705 238.848 43.3281 237.636C46.0856 236.424 49.2296 235.818 52.7599 235.818C56.366 235.818 59.4947 236.432 62.1463 237.659C64.8129 238.871 66.8811 240.576 68.3508 242.773C69.8205 244.97 70.5705 247.515 70.6008 250.409H59.8281ZM132.918 236.455H144.145V266.477C144.145 269.947 143.32 272.97 141.668 275.545C140.017 278.106 137.714 280.091 134.759 281.5C131.804 282.894 128.373 283.591 124.464 283.591C120.509 283.591 117.054 282.894 114.1 281.5C111.145 280.091 108.85 278.106 107.214 275.545C105.577 272.97 104.759 269.947 104.759 266.477V236.455H116.009V265.5C116.009 267.106 116.357 268.538 117.054 269.795C117.767 271.053 118.759 272.038 120.032 272.75C121.304 273.462 122.782 273.818 124.464 273.818C126.145 273.818 127.615 273.462 128.873 272.75C130.145 272.038 131.138 271.053 131.85 269.795C132.562 268.538 132.918 267.106 132.918 265.5V236.455ZM179.036 283V236.455H198.264C201.749 236.455 204.756 237.136 207.286 238.5C209.832 239.848 211.794 241.735 213.173 244.159C214.552 246.568 215.241 249.371 215.241 252.568C215.241 255.78 214.536 258.591 213.127 261C211.733 263.394 209.741 265.25 207.15 266.568C204.559 267.886 201.483 268.545 197.923 268.545H186.059V259.682H195.832C197.529 259.682 198.946 259.386 200.082 258.795C201.233 258.205 202.105 257.379 202.696 256.318C203.286 255.242 203.582 253.992 203.582 252.568C203.582 251.129 203.286 249.886 202.696 248.841C202.105 247.78 201.233 246.962 200.082 246.386C198.93 245.811 197.514 245.523 195.832 245.523H190.286V283H179.036ZM253.07 283H240.979L256.683 236.455H271.661L287.365 283H275.274L264.342 248.182H263.979L253.07 283ZM251.456 264.682H276.729V273.227H251.456V264.682Z" fill="#6BD09E"/>
<defs>
<clipPath id="clip0_1_53">
<rect width="258" height="198" fill="white" transform="translate(30 24)"/>
</clipPath>
</defs>
</svg>
